HIERARCHY
ROOT SpineBase
{
  OFFSET 0.000000 0.000000 0.000000
  CHANNELS 6 Xposition Yposition Zposition Zrotation Xrotation Yrotation
  JOINT SpineMid
  {
    OFFSET 0.000000 30.961067 0.000000
    CHANNELS 3 Zrotation Xrotation Yrotation
    JOINT SpineShoulder
    {
      OFFSET -0.239865 22.985558 -1.135354
      CHANNELS 3 Zrotation Xrotation Yrotation
      JOINT Neck
      {
        OFFSET -0.121108 7.608515 -0.723409
        CHANNELS 3 Zrotation Xrotation Yrotation
        JOINT Head
        {
          OFFSET 4.738170 13.018774 4.992882
          CHANNELS 3 Zrotation Xrotation Yrotation
          End Site
          {
            OFFSET 0 0 0
          }
        }
      }
      JOINT ShoulderLeft
      {
        OFFSET -10.607428 -2.439975 -11.546631
        CHANNELS 3 Zrotation Xrotation Yrotation
        JOINT ElbowLeft
        {
          OFFSET -7.719188 -23.231492 -8.620390
          CHANNELS 3 Zrotation Xrotation Yrotation
          JOINT WristLeft
          {
            OFFSET 3.395946 -21.268330 -10.387037
            CHANNELS 3 Zrotation Xrotation Yrotation
            JOINT HandLeft
            {
              OFFSET 0.858899 -7.062243 -2.642180
              CHANNELS 3 Zrotation Xrotation Yrotation
              JOINT HandTipLeft
              {
                OFFSET 1.744968 -7.774323 -2.203974
                CHANNELS 3 Zrotation Xrotation Yrotation
                End Site
                {
                  OFFSET 0 0 0
                }
              }
              JOINT ThumbLeft
              {
                OFFSET 4.189411 -0.647581 1.965526
                CHANNELS 3 Zrotation Xrotation Yrotation
                End Site
                {
                  OFFSET 0 0 0
                }
              }
            }
          }
        }
      }
      JOINT ShoulderRight
      {
        OFFSET 12.415157 -5.682438 10.928420
        CHANNELS 3 Zrotation Xrotation Yrotation
        JOINT ElbowRight
        {
          OFFSET 2.835895 -27.691700 3.111088
          CHANNELS 3 Zrotation Xrotation Yrotation
          JOINT WristRight
          {
            OFFSET 0.703268 -22.201341 -2.249882
            CHANNELS 3 Zrotation Xrotation Yrotation
            JOINT HandRight
            {
              OFFSET -2.363375 -7.313002 0.464558
              CHANNELS 3 Zrotation Xrotation Yrotation
              JOINT HandTipRight
              {
                OFFSET 0.116586 -7.986092 -0.223274
                CHANNELS 3 Zrotation Xrotation Yrotation
                End Site
                {
                  OFFSET 0 0 0
                }
              }
              JOINT ThumbRight
              {
                OFFSET -1.258602 -4.501092 -2.661670
                CHANNELS 3 Zrotation Xrotation Yrotation
                End Site
                {
                  OFFSET 0 0 0
                }
              }
            }
          }
        }
      }
    }
  }
  JOINT HipLeft
  {
    OFFSET -4.554590 1.488754 -7.861962
    CHANNELS 3 Zrotation Xrotation Yrotation
    JOINT KneeLeft
    {
      OFFSET -10.486374 -34.928395 -8.711863
      CHANNELS 3 Zrotation Xrotation Yrotation
      JOINT AnkleLeft
      {
        OFFSET -7.826837 -40.142782 4.716994
        CHANNELS 3 Zrotation Xrotation Yrotation
        JOINT FootLeft
        {
          OFFSET 0.651999 -7.739000 -6.595526
          CHANNELS 3 Zrotation Xrotation Yrotation
          End Site
          {
            OFFSET 0 0 0
          }
        }
      }
    }
  }
  JOINT HipRight
  {
    OFFSET 5.388736 0.058702 0.944503
    CHANNELS 3 Zrotation Xrotation Yrotation
    JOINT KneeRight
    {
      OFFSET -7.104574 -38.909282 1.157297
      CHANNELS 3 Zrotation Xrotation Yrotation
      JOINT AnkleRight
      {
        OFFSET -9.373564 -38.192422 11.908730
        CHANNELS 3 Zrotation Xrotation Yrotation
        JOINT FootRight
        {
          OFFSET 4.362019 -7.270701 -6.113621
          CHANNELS 3 Zrotation Xrotation Yrotation
          End Site
          {
            OFFSET 0 0 0
          }
        }
      }
    }
  }
}
MOTION
Frames: 10
Frame Time: 0.033333
-37.292969 86.843041 348.342944 -0.000000 0.000000 -41.530217 -0.000000 0.000000 41.530217 -0.000000 0.000000 0.000000 -0.000000 0.000000 0.000000 0.000000 0.000000 0.000000 -0.000000 0.000000 0.000000 -0.000000 0.000000 0.000000 -0.000000 0.000000 0.000000 -0.000000 0.000000 0.000000 0.000000 0.000000 0.000000 0.000000 0.000000 0.000000 -0.000000 0.000000 0.000000 -0.000000 0.000000 0.000000 -0.000000 0.000000 0.000000 -0.000000 0.000000 0.000000 0.000000 0.000000 0.000000 0.000000 0.000000 0.000000 -0.000000 0.000000 41.530217 -0.000000 0.000000 0.000000 -0.000000 0.000000 0.000000 0.000000 0.000000 0.000000 -0.000000 0.000000 41.530217 -0.000000 0.000000 0.000000 -0.000000 0.000000 0.000000 0.000000 0.000000 0.000000
-37.351487 86.898206 346.839612 0.545985 -0.299816 -43.788961 -0.601614 -0.161394 43.789542 -0.000000 0.000000 0.000000 -0.000000 0.000000 0.000000 0.000000 0.000000 0.000000 0.978743 0.233174 -0.443577 1.067778 -1.334369 -0.706137 -0.103180 1.975218 0.511591 -0.341333 -4.930576 -0.670809 0.000000 0.000000 0.000000 0.000000 0.000000 0.000000 -0.163217 -1.407611 -0.164299 -0.313409 0.617614 0.191836 4.818776 0.223189 0.398519 -4.739886 -1.428307 -0.462478 0.000000 0.000000 0.000000 0.000000 0.000000 0.000000 0.287647 -2.195641 44.626652 0.796228 2.072397 -0.833218 0.678641 0.074128 -0.571964 0.000000 0.000000 0.000000 -0.601614 -0.161394 43.789542 -0.187194 -1.150168 0.221266 -5.294555 -4.809034 0.674570 0.000000 0.000000 0.000000
-37.467192 86.925436 345.429766 0.992381 -0.580402 -45.721897 -0.312896 -0.070936 45.758058 -0.722919 0.406296 -0.028912 0.080364 0.942939 -0.373587 0.000000 0.000000 0.000000 1.869732 0.300099 -0.802022 1.719577 -2.577001 -1.230068 -0.731835 3.107678 1.057355 -0.258836 -8.405401 -1.264629 0.000000 0.000000 0.000000 0.000000 0.000000 0.000000 -0.306631 -2.586644 -0.305622 -0.557640 1.166462 0.362067 8.825356 0.383828 0.676134 -8.639856 -2.223547 -0.813425 0.000000 0.000000 0.000000 0.000000 0.000000 0.000000 0.772768 -3.992131 47.310879 1.980390 2.527264 -1.266097 0.871124 1.123924 -1.604761 0.000000 0.000000 0.000000 -0.578626 0.864209 45.677366 -1.558278 -2.513322 0.427180 -9.472160 -8.674441 0.947382 0.000000 0.000000 0.000000
-37.640085 86.924731 344.113407 1.337957 -0.841179 -47.364966 -0.434920 -0.117177 47.415325 -0.956719 0.601252 -0.035976 0.194791 1.266218 -0.535772 0.000000 0.000000 0.000000 2.671094 0.205089 -1.071816 1.957183 -3.726731 -1.596543 -1.773658 3.436492 1.676187 0.150965 -10.484028 -1.860779 0.000000 0.000000 0.000000 0.000000 0.000000 0.000000 -0.428365 -3.534905 -0.422163 -0.743837 1.627310 0.505599 12.084786 0.481484 0.874097 -11.790912 -2.645923 -1.074091 0.000000 0.000000 0.000000 0.000000 0.000000 0.000000 1.386503 -5.404058 49.616522 2.658478 3.466808 -1.771747 1.498652 1.083208 -2.572512 0.000000 0.000000 0.000000 -0.484212 1.487879 47.326519 -2.605018 -3.320024 0.532042 -12.258811 -11.220812 0.987067 0.000000 0.000000 0.000000
-37.870166 86.896090 342.890533 1.581847 -1.081674 -48.748098 -0.533803 -0.165409 48.809065 -0.482443 0.040971 0.004035 -0.262755 2.238496 -0.729469 0.000000 0.000000 0.000000 2.759997 0.697942 -1.337891 1.779799 -4.787892 -1.823058 -3.159587 2.974833 2.375827 0.841213 -11.210885 -2.520861 0.000000 0.000000 0.000000 0.000000 0.000000 0.000000 -1.151960 -3.501639 -0.548808 -0.880068 1.986565 0.618697 14.667583 0.517266 1.023071 -14.277479 -2.830380 -1.264167 0.000000 0.000000 0.000000 0.000000 0.000000 0.000000 2.077860 -6.450341 51.567124 3.126182 4.231953 -2.183351 2.262308 0.610372 -3.653889 0.000000 0.000000 0.000000 -0.131334 2.281188 48.728369 -3.848858 -3.849805 0.573013 -13.522518 -12.291715 0.950319 0.000000 0.000000 0.000000
-38.157435 86.839514 341.761146 1.723531 -1.301500 -49.894711 -0.609737 -0.212721 49.962028 -0.544318 0.044872 0.001336 -0.050729 2.539572 -0.859316 0.000000 0.000000 0.000000 3.379999 0.469525 -1.440971 1.181797 -5.768625 -1.918836 -4.849609 1.717013 3.137745 1.806505 -10.610555 -3.282295 0.000000 0.000000 0.000000 0.000000 0.000000 0.000000 -1.226367 -3.807067 -0.605013 -0.971976 2.235029 0.698745 16.639770 0.492236 1.145069 -16.173288 -2.848296 -1.399630 0.000000 0.000000 0.000000 0.000000 0.000000 0.000000 2.809830 -7.150651 53.177995 3.382220 4.849834 -2.496956 3.166641 -0.331867 -4.851609 0.000000 0.000000 0.000000 0.488192 3.269115 49.898682 -5.306509 -4.111196 0.555394 -13.207758 -11.829483 0.908908 0.000000 0.000000 0.000000
-38.673945 86.765645 340.576222 1.601346 -1.297213 -50.796574 -0.634514 -0.299677 50.853395 -0.583264 0.065296 -0.010817 0.575606 2.402245 -0.948484 0.000000 0.000000 0.000000 4.022387 -0.467622 -1.229569 0.241680 -6.174866 -2.062389 -8.255767 -3.121947 4.203616 4.263980 -6.526915 -4.665066 0.000000 0.000000 0.000000 0.000000 0.000000 0.000000 -1.054541 -3.468436 -0.557360 -0.883129 2.067908 0.667013 20.167855 -2.759322 2.938337 -19.891608 0.889334 -1.977245 0.000000 0.000000 0.000000 0.000000 0.000000 0.000000 4.023601 -7.296621 54.359890 3.167968 5.371336 -2.614271 4.335078 -1.636398 -6.326363 0.000000 0.000000 0.000000 2.043110 5.092527 50.783191 -8.036129 -4.227305 0.371237 -13.368274 -12.232409 1.084524 0.000000 0.000000 0.000000
-39.165100 86.665873 339.537336 1.437436 -1.403261 -51.686837 -0.505509 -0.415338 51.734894 -0.555484 0.006140 -0.017076 1.193615 2.604093 -1.089084 0.000000 0.000000 0.000000 4.718333 -0.823623 -1.194752 -1.707720 -7.472603 -1.722487 -10.620270 -6.779119 4.763982 6.218071 -2.322990 -5.801113 0.000000 0.000000 0.000000 0.000000 0.000000 0.000000 -0.906429 -3.179617 -0.538823 -0.917975 2.095439 0.675703 20.416181 2.660948 0.157898 -20.163020 -4.689735 -1.213715 0.000000 0.000000 0.000000 0.000000 0.000000 0.000000 5.007497 -7.237649 55.462668 2.840668 5.748426 -2.686648 5.661008 -3.756603 -7.880330 0.000000 0.000000 0.000000 3.575222 6.959733 51.624690 -10.489373 -4.010845 0.224014 -9.622306 -8.424672 0.952017 0.000000 0.000000 0.000000
-39.561034 86.512379 338.753672 1.356887 -1.640450 -52.188618 -0.524611 -0.438991 52.232255 -0.561802 0.015956 -0.022593 1.453834 2.730298 -1.106851 0.000000 0.000000 0.000000 5.287826 -1.442838 -1.054846 -4.066571 -8.620024 -1.251219 -12.383752 -8.862998 5.128994 7.121450 1.193464 -6.310536 0.000000 0.000000 0.000000 0.000000 0.000000 0.000000 -0.750299 -2.941054 -0.515925 -1.116141 3.911891 0.779118 17.885662 1.024744 0.498266 -17.503240 -4.573947 -1.012154 0.000000 0.000000 0.000000 0.000000 0.000000 0.000000 5.407015 -7.059509 56.056917 2.613560 5.876932 -2.695738 6.898523 -6.272084 -9.352008 0.000000 0.000000 0.000000 4.929286 8.401481 52.088408 -12.250394 -3.296584 0.133643 -3.436682 -1.936558 0.047723 0.000000 0.000000 0.000000
-39.905482 86.329698 338.125223 1.282321 -1.917225 -52.245337 -0.660973 -0.368928 52.284998 -0.564444 0.056295 -0.026905 1.761362 2.813714 -1.184777 0.000000 0.000000 0.000000 5.716887 -2.147663 -0.870295 -6.302943 -10.309453 -0.899987 -14.332722 -8.859449 6.131620 8.522601 3.634802 -6.934386 0.000000 0.000000 0.000000 0.000000 0.000000 0.000000 -0.651891 -2.843381 -0.504520 -1.698903 3.773024 0.874476 17.026837 1.388350 0.204518 -15.083921 -4.911953 -0.846905 0.000000 0.000000 0.000000 0.000000 0.000000 0.000000 5.853220 -6.816407 56.183633 2.120861 6.276515 -2.710462 7.809489 -8.669686 -10.322976 0.000000 0.000000 0.000000 6.141386 9.197818 52.151771 -13.359671 -2.204124 0.044583 6.906516 8.478658 -2.739121 0.000000 0.000000 0.000000
